<?xml version="1.0" encoding="UTF-8"?>
<svg xmlns="http://www.w3.org/2000/svg" xmlns:xlink="http://www.w3.org/1999/xlink" width="24px" height="24px" viewBox="0 0 24 24" version="1.1">
<defs>
<filter id="alpha" filterUnits="objectBoundingBox" x="0%" y="0%" width="100%" height="100%">
  <feColorMatrix type="matrix" in="SourceGraphic" values="0 0 0 0 1 0 0 0 0 1 0 0 0 0 1 0 0 0 1 0"/>
</filter>
<mask id="mask0">
  <g filter="url(#alpha)">
<rect x="0" y="0" width="24" height="24" style="fill:rgb(0%,0%,0%);fill-opacity:0.192157;stroke:none;"/>
  </g>
</mask>
<clipPath id="clip1">
  <rect x="0" y="0" width="24" height="24"/>
</clipPath>
<g id="surface5" clip-path="url(#clip1)">
<path style=" stroke:none;fill-rule:evenodd;fill:rgb(34.117647%,20.392157%,57.254902%);fill-opacity:1;" d="M 8.578125 6.179688 C 8.460938 10 8.421875 13.839844 8.460938 17.699219 C 8.480469 17.820312 8.441406 17.898438 8.339844 17.941406 C 8.300781 13.980469 8.339844 10.019531 8.460938 6.058594 C 8.53125 6.074219 8.574219 6.113281 8.578125 6.179688 Z M 8.578125 6.179688 "/>
</g>
<mask id="mask1">
  <g filter="url(#alpha)">
<rect x="0" y="0" width="24" height="24" style="fill:rgb(0%,0%,0%);fill-opacity:0.862745;stroke:none;"/>
  </g>
</mask>
<clipPath id="clip2">
  <rect x="0" y="0" width="24" height="24"/>
</clipPath>
<g id="surface8" clip-path="url(#clip2)">
<path style=" stroke:none;fill-rule:evenodd;fill:rgb(34.901961%,20.784314%,58.823529%);fill-opacity:1;" d="M 13.859375 9.179688 C 12.039062 8.273438 10.277344 7.273438 8.578125 6.179688 C 8.574219 6.113281 8.53125 6.074219 8.460938 6.058594 C 8.339844 10.019531 8.300781 13.980469 8.339844 17.941406 C 8.179688 15.980469 8.101562 13.980469 8.101562 11.941406 C 8.140625 9.941406 8.179688 7.941406 8.21875 5.941406 C 8.300781 5.898438 8.378906 5.859375 8.460938 5.820312 C 10.398438 6.898438 12.316406 8 14.21875 9.121094 C 14.363281 9.199219 14.363281 9.257812 14.21875 9.300781 C 14.109375 9.226562 13.988281 9.183594 13.859375 9.179688 Z M 13.859375 9.179688 "/>
</g>
<mask id="mask2">
  <g filter="url(#alpha)">
<rect x="0" y="0" width="24" height="24" style="fill:rgb(0%,0%,0%);fill-opacity:0.8;stroke:none;"/>
  </g>
</mask>
<clipPath id="clip3">
  <rect x="0" y="0" width="24" height="24"/>
</clipPath>
<g id="surface11" clip-path="url(#clip3)">
<path style=" stroke:none;fill-rule:evenodd;fill:rgb(34.509804%,20.784314%,58.431373%);fill-opacity:1;" d="M 23.578125 15.179688 C 22.753906 18.195312 20.992188 20.574219 18.300781 22.320312 C 17.632812 22.675781 16.992188 22.976562 16.378906 23.21875 C 16 23.410156 15.597656 23.53125 15.179688 23.578125 C 15.085938 23.546875 15.003906 23.484375 14.941406 23.398438 C 19.28125 22.101562 22.101562 19.28125 23.398438 14.941406 C 23.484375 15.003906 23.546875 15.085938 23.578125 15.179688 Z M 23.578125 15.179688 "/>
</g>
</defs>
<g id="surface1">
<path style=" stroke:none;fill-rule:evenodd;fill:rgb(34.509804%,20.784314%,58.039216%);fill-opacity:1;" d="M 9.898438 -0.0585938 C 11.261719 -0.0585938 12.621094 -0.0585938 13.980469 -0.0585938 C 18.433594 0.878906 21.511719 3.398438 23.21875 7.5 C 23.339844 7.96875 23.542969 8.386719 23.820312 8.761719 C 23.695312 9.121094 23.734375 9.460938 23.941406 9.78125 C 23.941406 11.21875 23.941406 12.660156 23.941406 14.101562 C 23.734375 14.417969 23.695312 14.757812 23.820312 15.121094 C 23.75 15.175781 23.667969 15.195312 23.578125 15.179688 C 23.546875 15.085938 23.484375 15.003906 23.398438 14.941406 C 22.101562 19.28125 19.28125 22.101562 14.941406 23.398438 C 15.003906 23.484375 15.085938 23.546875 15.179688 23.578125 C 15.171875 23.828125 15.050781 23.867188 14.820312 23.699219 C 14.554688 23.746094 14.3125 23.824219 14.101562 23.941406 C 12.660156 23.941406 11.21875 23.941406 9.78125 23.941406 C 5.046875 22.886719 1.886719 20.023438 0.300781 15.359375 C 0.25 15.246094 0.171875 15.167969 0.0585938 15.121094 C 0.167969 14.722656 0.128906 14.34375 -0.0585938 13.980469 C -0.0585938 12.621094 -0.0585938 11.261719 -0.0585938 9.898438 C 0.707031 6.183594 2.746094 3.324219 6.058594 1.320312 C 7.332031 0.664062 8.609375 0.203125 9.898438 -0.0585938 Z M 8.578125 6.179688 C 10.277344 7.273438 12.039062 8.273438 13.859375 9.179688 C 14.488281 9.605469 15.105469 10.042969 15.71875 10.5 C 15.761719 10.460938 15.800781 10.421875 15.839844 10.378906 C 16.757812 10.925781 17.621094 11.464844 18.421875 12 C 14.953125 13.964844 11.632812 15.863281 8.460938 17.699219 C 8.421875 13.839844 8.460938 10 8.578125 6.179688 Z M 8.578125 6.179688 "/>
<use xlink:href="#surface5" mask="url(#mask0)"/>
<use xlink:href="#surface8" mask="url(#mask1)"/>
<use xlink:href="#surface11" mask="url(#mask2)"/>
</g>
</svg>
